<svg width="22" height="22" xmlns="http://www.w3.org/2000/svg"><path d="M19.462 22H2.538A2.539 2.539 0 0 1 0 19.46V2.538A2.537 2.537 0 0 1 2.538 0h16.924A2.537 2.537 0 0 1 22 2.538V19.46A2.539 2.539 0 0 1 19.462 22zM11 6.77A4.23 4.23 0 0 0 6.77 11 4.23 4.23 0 0 0 11 15.23 4.23 4.23 0 0 0 15.23 11 4.23 4.23 0 0 0 11 6.77zm8.462-3.386a.844.844 0 0 0-.847-.844h-2.538a.845.845 0 0 0-.846.845v2.541c0 .468.38.846.846.846h2.538c.467 0 .847-.38.847-.846V3.382v.002zm0 5.926h-1.917c.142.54.224 1.106.224 1.691 0 3.74-3.03 6.77-6.769 6.77-3.74 0-6.77-3.031-6.77-6.77 0-.585.083-1.152.224-1.69H2.537v9.305c0 .468.378.846.847.846h15.23a.846.846 0 0 0 .846-.846V9.307l.002.003z" fill="#FFF" fill-rule="evenodd"/></svg>