<svg width="22" height="22" xmlns="http://www.w3.org/2000/svg"><path d="M17.369 18.748h-1.884v-5.105c0-1.218-.024-2.785-1.697-2.785-1.698 0-1.957 1.326-1.957 2.695v5.195H8.57V8.25h3.13v1.43h.042c.437-.825 1.501-1.695 3.09-1.695 3.3 0 3.911 2.172 3.911 5v5.759l-1.375.004zM4.892 6.813a1.891 1.891 0 1 1-.001-3.783 1.891 1.891 0 0 1 .001 3.783zM3.26 18.748V8.25h3.267v10.498H3.259zM1.623 0C.726 0 0 .71 0 1.585v18.83C0 21.29.726 22 1.623 22H20.37c.896 0 1.629-.71 1.629-1.585V1.585C22 .71 21.267 0 20.37 0H1.624z" fill="#FFF" fill-rule="nonzero"/></svg>